<svg width="46" height="46" viewBox="0 0 46 46" fill="none" xmlns="http://www.w3.org/2000/svg">
<g id="chair_FILL0_wght400_GRAD0_opsz48-2 1">
<path id="Vector" d="M9.75967 40.2768C9.38227 40.2768 9.05205 40.1353 8.76901 39.8522C8.48596 39.5692 8.34444 39.239 8.34444 38.8616V36.8803H7.73117C6.28974 36.8803 5.06452 36.3758 4.05549 35.3668C3.04649 34.3577 2.54199 33.1325 2.54199 31.6911L2.54199 20.1805C2.54199 18.5766 3.02946 17.3579 4.0044 16.5245C4.97933 15.6911 6.12724 15.2744 7.44813 15.2744V11.2174C7.44813 9.77073 7.90414 8.59137 8.81618 7.67934C9.72822 6.7673 10.9076 6.31128 12.3543 6.31128L34.2903 6.31128C35.737 6.31128 36.9085 6.7673 37.8048 7.67934C38.7011 8.59137 39.1493 9.77073 39.1493 11.2174V15.2744C40.4702 15.2744 41.6181 15.6911 42.593 16.5245C43.568 17.3579 44.0554 18.5766 44.0554 20.1805V31.6911C44.0554 33.1325 43.5509 34.3577 42.5419 35.3668C41.5329 36.3758 40.3077 36.8803 38.8662 36.8803H38.253V38.8616C38.253 39.239 38.1115 39.5692 37.8284 39.8522C37.5454 40.1353 37.2151 40.2768 36.8377 40.2768C36.4604 40.2768 36.1301 40.1353 35.8471 39.8522C35.564 39.5692 35.4225 39.239 35.4225 38.8616V36.8803H11.1749L11.1749 38.8616C11.1749 39.239 11.0334 39.5692 10.7503 39.8522C10.4673 40.1353 10.1371 40.2768 9.75967 40.2768ZM7.73117 34.0498H38.8662C39.4952 34.0498 40.0456 33.8139 40.5174 33.3422C40.9891 32.8704 41.225 32.3201 41.225 31.6911V20.1805C41.225 19.5515 41.0363 19.0484 40.6589 18.671C40.2815 18.2936 39.7783 18.1049 39.1493 18.1049C38.5203 18.1049 38.0171 18.2936 37.6397 18.671C37.2623 19.0484 37.0736 19.5515 37.0736 20.1805V28.4832H9.5238V20.1805C9.5238 19.5515 9.3351 19.0484 8.95771 18.671C8.58031 18.2936 8.07712 18.1049 7.44813 18.1049C6.81913 18.1049 6.31594 18.2936 5.93855 18.671C5.56115 19.0484 5.37245 19.5515 5.37245 20.1805L5.37245 31.6911C5.37245 32.3201 5.60833 32.8704 6.08007 33.3422C6.55181 33.8139 7.10218 34.0498 7.73117 34.0498ZM12.3543 25.6528H34.2432V20.1805C34.2432 19.2056 34.4633 18.3958 34.9036 17.7511C35.3439 17.1063 35.8156 16.5953 36.3188 16.2179V11.2174C36.3188 10.5884 36.1301 10.0852 35.7527 9.70783C35.3753 9.33044 34.8762 9.14174 34.2553 9.14174H12.3421C11.7212 9.14174 11.2221 9.33044 10.8447 9.70783C10.4673 10.0852 10.2786 10.5884 10.2786 11.2174V16.2179C10.7818 16.5953 11.2535 17.1063 11.6938 17.7511C12.1341 18.3958 12.3543 19.2056 12.3543 20.1805V25.6528Z" fill="url(#paint0_linear_2_111558)"/>
</g>
<defs>
<linearGradient id="paint0_linear_2_111558" x1="30.5" y1="3.49975" x2="-23" y2="78.4998" gradientUnits="userSpaceOnUse">
<stop stop-color="#C83F49"/>
<stop offset="1" stop-color="#C83F49" stop-opacity="0"/>
</linearGradient>
</defs>
</svg>
