<svg width="25" height="26" viewBox="0 0 25 26" fill="none" xmlns="http://www.w3.org/2000/svg">
<g id="iran" clip-path="url(#clip0_2_111659)">
<path id="Vector" d="M12.5001 25.5002C19.4037 25.5002 25.0001 19.9038 25.0001 13.0002C25.0001 6.09668 19.4037 0.500244 12.5001 0.500244C5.59656 0.500244 0.00012207 6.09668 0.00012207 13.0002C0.00012207 19.9038 5.59656 25.5002 12.5001 25.5002Z" fill="#F0F0F0"/>
<path id="Vector_2" d="M16.5599 9.73906H14.9245C14.938 9.9188 14.9457 10.1001 14.9457 10.2825C14.9457 11.4917 14.6434 12.6637 14.1165 13.498C13.954 13.7553 13.6808 14.1187 13.3152 14.3638V9.73901H11.6848V14.3638C11.3192 14.1187 11.046 13.7554 10.8834 13.498C10.3565 12.6637 10.0543 11.4917 10.0543 10.2825C10.0543 10.1001 10.062 9.91875 10.0755 9.73906H8.44004C8.42954 9.91792 8.42383 10.0991 8.42383 10.2825C8.42383 13.6349 10.2143 16.2608 12.4999 16.2608C14.7855 16.2608 16.576 13.6349 16.576 10.2825C16.5761 10.0991 16.5704 9.91792 16.5599 9.73906Z" fill="#D80027"/>
<path id="Vector_3" d="M5.16306 6.47827H6.79348V7.56523H8.4239V6.47827H10.0543V7.56523H11.6847V6.47827H13.3152V7.56523H14.9456V6.47827H16.576V7.56523H18.2064V6.47827H19.8368V7.56523H23.7595C21.7378 3.38403 17.4557 0.5 12.5 0.5C7.54431 0.5 3.26223 3.38403 1.24036 7.56523H5.16306V6.47827Z" fill="#6DA544"/>
<path id="Vector_4" d="M19.837 18.4348V19.5218H18.2066V18.4348H16.5761V19.5218H14.9457V18.4348H13.3153V19.5218H11.6849V18.4348H10.0545V19.5218H8.42405V18.4348H6.79348V19.5218H5.16306V18.4348H1.24036C3.26223 22.616 7.54426 25.5001 12.5 25.5001C17.4558 25.5001 21.7378 22.616 23.7597 18.4348H19.837Z" fill="#D80027"/>
</g>
<defs>
<clipPath id="clip0_2_111659">
<rect width="25" height="25" fill="white" transform="translate(0 0.5)"/>
</clipPath>
</defs>
</svg>
